<svg width="230" height="171" viewBox="0 0 230 171" fill="none" xmlns="http://www.w3.org/2000/svg">
<path d="M205.947 75.2713C214.998 43.6883 199.664 11.5887 171.699 3.57387C143.732 -4.44092 113.723 14.664 104.673 46.247C95.6205 77.8301 110.954 109.93 138.921 117.944C166.888 125.959 196.895 106.854 205.947 75.2713Z" fill="#2B353C"/>
<path d="M115.506 106.891L100.351 171.09H110.227L123.225 112.17L115.506 106.891Z" fill="#2B353C"/>
<path d="M191.4 91.9121C191.173 92.252 229.034 171.097 229.034 171.097H219.156L186.291 98.6104L191.4 91.9121Z" fill="#2B353C"/>
<path d="M155.302 116.994L167.62 171.089H177.213L163.022 113.814L155.302 116.994Z" fill="#2B353C"/>
<path d="M199.914 73.5243C208.966 41.9412 193.632 9.84159 165.666 1.8268C137.699 -6.18799 107.69 12.9169 98.6392 44.5C89.5885 76.083 104.922 108.183 132.888 116.197C160.854 124.212 190.863 105.107 199.914 73.5243Z" fill="white"/>
<path d="M191.837 71.2006C199.436 44.6811 186.543 17.7206 163.036 10.9845C139.53 4.24702 114.314 20.2847 106.713 46.8042C99.1122 73.325 112.007 100.284 135.513 107.02C159.02 113.758 184.236 97.7201 191.837 71.2006Z" fill="#DD5247"/>
<path d="M181.621 68.7874C187.399 48.6264 177.596 28.1308 159.725 23.0093C141.854 17.8877 122.683 30.0799 116.905 50.2409C111.128 70.402 120.931 90.8976 138.802 96.0191C156.673 101.141 175.844 88.9485 181.621 68.7874Z" fill="white"/>
<path d="M167.879 64.332C171.204 52.7293 165.568 40.9364 155.293 37.9905C145.016 35.046 133.989 42.064 130.664 53.6667C127.34 65.2694 132.975 77.0623 143.25 80.0068C153.527 82.9527 164.554 75.9347 167.879 64.332Z" fill="#DD5247"/>
<path d="M146.19 61.7734L146.327 59.3374L5.43983 51.3887L5.30225 53.8247L146.19 61.7734Z" fill="#2B353C"/>
<path d="M153.144 60.9702L145.085 55.2363L144.46 65.7384L153.144 60.9702Z" fill="#2B353C"/>
<path d="M17.4216 52.0601L15.2648 49.3921L0.449219 48.541L5.44397 51.379L17.4216 52.0601Z" fill="#2B353C"/>
<path d="M17.3123 54.5542L14.8723 56.9376L0 56.0865L5.33601 53.873L17.3123 54.5542Z" fill="#2B353C"/>
<path d="M152.685 53.8789C152.685 53.8789 147.576 61.0304 150.471 65.4007C153.366 69.7722 160.575 61.9382 160.575 61.9382L152.685 53.8789Z" fill="#DD5247"/>
<path d="M151.152 54.8998C149.392 58.1923 148.995 62.166 150.129 65.7418C150.357 66.4229 151.435 66.1397 151.208 65.4585C150.129 62.166 150.471 58.4756 152.116 55.4677C152.457 54.8431 151.492 54.2753 151.152 54.8998Z" fill="#2B353C"/>
</svg>
